<svg width="29" height="29" viewBox="0 0 29 29" fill="none" xmlns="http://www.w3.org/2000/svg">
<g id="Frame">
<g id="Vector">
<path d="M12.4502 2.69653C15.0181 2.63829 17.5094 3.57212 19.4062 5.30396C21.3032 7.03589 22.4598 9.43267 22.6348 11.9954C22.8096 14.5579 21.9896 17.0892 20.3457 19.0627L26.0176 24.7336C26.1017 24.8177 26.1683 24.9177 26.2139 25.0276C26.2594 25.1376 26.2832 25.2562 26.2832 25.3752C26.2832 25.4942 26.2594 25.612 26.2139 25.7219C26.1683 25.8319 26.1017 25.9317 26.0176 26.0159C25.9334 26.1 25.8336 26.1666 25.7236 26.2122C25.6137 26.2577 25.4959 26.2814 25.377 26.2815C25.2579 26.2815 25.1393 26.2577 25.0293 26.2122C24.9195 26.1666 24.8194 26.1 24.7354 26.0159L19.0645 20.344C17.0909 21.9879 14.5596 22.8079 11.9971 22.6331C9.43438 22.4581 7.0376 21.3015 5.30566 19.4045C3.57382 17.5077 2.64 15.0163 2.69824 12.4485C2.7566 9.88047 3.80281 7.43376 5.61914 5.61743C7.43547 3.8011 9.88218 2.7549 12.4502 2.69653ZM14.2803 4.68774C12.6981 4.37305 11.0577 4.53429 9.56738 5.15161C8.07713 5.76895 6.8034 6.81528 5.90723 8.15649C5.01119 9.49769 4.5332 11.0748 4.5332 12.6877C4.53569 14.8501 5.39581 16.9234 6.9248 18.4524C8.45385 19.9812 10.5272 20.8416 12.6895 20.844C14.3025 20.8439 15.8795 20.3652 17.2207 19.469C18.5619 18.5728 19.6073 17.2991 20.2246 15.8088C20.8419 14.3185 21.0032 12.6781 20.6885 11.0959C20.3737 9.51389 19.5967 8.06078 18.4561 6.92017C17.3154 5.77957 15.8624 5.00244 14.2803 4.68774Z" fill="#FFCC01"/>
<path d="M12.4502 2.69653C15.0181 2.63829 17.5094 3.57212 19.4062 5.30396C21.3032 7.03589 22.4598 9.43267 22.6348 11.9954C22.8096 14.5579 21.9896 17.0892 20.3457 19.0627L26.0176 24.7336C26.1017 24.8177 26.1683 24.9177 26.2139 25.0276C26.2594 25.1376 26.2832 25.2562 26.2832 25.3752C26.2832 25.4942 26.2594 25.612 26.2139 25.7219C26.1683 25.8319 26.1017 25.9317 26.0176 26.0159C25.9334 26.1 25.8336 26.1666 25.7236 26.2122C25.6137 26.2577 25.4959 26.2814 25.377 26.2815C25.2579 26.2815 25.1393 26.2577 25.0293 26.2122C24.9195 26.1666 24.8194 26.1 24.7354 26.0159L19.0645 20.344C17.0909 21.9879 14.5596 22.8079 11.9971 22.6331C9.43438 22.4581 7.0376 21.3015 5.30566 19.4045C3.57382 17.5077 2.64 15.0163 2.69824 12.4485C2.7566 9.88047 3.80281 7.43376 5.61914 5.61743C7.43547 3.8011 9.88218 2.7549 12.4502 2.69653ZM14.2803 4.68774C12.6981 4.37305 11.0577 4.53429 9.56738 5.15161C8.07713 5.76895 6.8034 6.81528 5.90723 8.15649C5.01119 9.49769 4.5332 11.0748 4.5332 12.6877C4.53569 14.8501 5.39581 16.9234 6.9248 18.4524C8.45385 19.9812 10.5272 20.8416 12.6895 20.844C14.3025 20.8439 15.8795 20.3652 17.2207 19.469C18.5619 18.5728 19.6073 17.2991 20.2246 15.8088C20.8419 14.3185 21.0032 12.6781 20.6885 11.0959C20.3737 9.51389 19.5967 8.06078 18.4561 6.92017C17.3154 5.77957 15.8624 5.00244 14.2803 4.68774Z" stroke="#FFCC01"/>
</g>
</g>
</svg>
