<svg xmlns="http://www.w3.org/2000/svg" width="16" height="11" viewBox="0 0 16 11" fill="none">
  <path d="M15.184 5.88137L9.66148 10.7327C9.54635 10.8338 9.39018 10.8906 9.22735 10.8906C9.06452 10.8906 8.90836 10.8338 8.79322 10.7327C8.67808 10.6315 8.61339 10.4943 8.61339 10.3513C8.61339 10.2083 8.67808 10.0711 8.79322 9.96993L13.2688 6.03903H1.25034C1.08759 6.03903 0.931518 5.98224 0.816443 5.88115C0.701368 5.78006 0.636719 5.64296 0.636719 5.5C0.636719 5.35704 0.701368 5.21993 0.816443 5.11885C0.931518 5.01776 1.08759 4.96097 1.25034 4.96097H13.2688L8.79322 1.03007C8.67808 0.928928 8.61339 0.791747 8.61339 0.648707C8.61339 0.505667 8.67808 0.368486 8.79322 0.267342C8.90836 0.166197 9.06452 0.109375 9.22735 0.109375C9.39018 0.109375 9.54635 0.166197 9.66148 0.267342L15.184 5.11863C15.2411 5.16869 15.2863 5.22814 15.3172 5.29358C15.3481 5.35902 15.364 5.42916 15.364 5.5C15.364 5.57084 15.3481 5.64098 15.3172 5.70642C15.2863 5.77185 15.2411 5.8313 15.184 5.88137Z" fill="#221F20"/>
</svg>